<?xml version="1.0" encoding="UTF-8"?>
<svg version="1.1" xmlns="http://www.w3.org/2000/svg" width="512" height="512">
<path d="M0 0 C168.96 0 337.92 0 512 0 C512 168.96 512 337.92 512 512 C343.04 512 174.08 512 0 512 C0 343.04 0 174.08 0 0 Z " fill="#209CEE" transform="translate(0,0)"/>
<path d="M0 0 C2.41554739 -0.00217399 4.83062746 -0.02035119 7.24609375 -0.03930664 C40.43401359 -0.16078558 74.10197961 7.55925971 99.31640625 30.18530273 C100.1157659 30.79984935 100.1157659 30.79984935 100.93127424 31.42681104 C102.97365274 34.01970876 102.68888716 36.02984977 102.68554974 39.3016386 C102.69152288 40.58950132 102.69749603 41.87736404 102.70365018 43.2042529 C102.69509043 44.64176002 102.68625363 46.07926551 102.6771698 47.51676941 C102.67847724 49.03728675 102.68110253 50.55780344 102.6849373 52.07831651 C102.69166632 56.26740359 102.67961656 60.4562619 102.66460311 64.64531982 C102.6516817 69.15860176 102.65602944 73.67187017 102.65830994 78.18516541 C102.65988514 86.00833902 102.65045013 93.83143774 102.63359642 101.65459251 C102.60924445 112.96563391 102.60140505 124.27663898 102.59763245 135.58770374 C102.59106198 153.93788424 102.5710847 172.28802479 102.54272461 190.63818359 C102.51519942 208.46663208 102.49395831 226.29506972 102.48120117 244.12353516 C102.48001892 245.77117446 102.48001892 245.77117446 102.47881278 247.45209941 C102.47489774 252.96242566 102.4711066 258.47275198 102.46737707 263.98307836 C102.43626264 309.71718082 102.38341067 355.45123972 102.31640625 401.18530273 C95.51268085 402.06157476 88.93071217 402.36867259 82.06640625 402.37280273 C81.01066406 402.38504883 79.95492187 402.39729492 78.8671875 402.40991211 C57.14708198 402.4497899 36.0658923 395.56137001 20.31640625 380.18530273 C14.47360494 373.56021441 9.89223709 366.48792793 5.56640625 358.81030273 C4.36196177 356.70540044 3.15620805 354.60124682 1.94921875 352.49780273 C1.34883789 351.44850586 0.74845703 350.39920898 0.12988281 349.31811523 C-3.19521652 343.57394795 -6.65543907 337.91018287 -10.12792969 332.25415039 C-10.83224121 331.09471924 -10.83224121 331.09471924 -11.55078125 329.91186523 C-11.96440918 329.23720215 -12.37803711 328.56253906 -12.80419922 327.86743164 C-13.68359375 326.18530273 -13.68359375 326.18530273 -13.68359375 324.18530273 C-14.67875 324.17112305 -15.67390625 324.15694336 -16.69921875 324.14233398 C-43.56318715 323.37628222 -70.34702157 313.90202665 -90.68359375 296.18530273 C-91.57691406 295.43635742 -92.47023438 294.68741211 -93.390625 293.91577148 C-110.903847 278.7539751 -121.48304065 258.52201539 -129.68359375 237.18530273 C-130.15539062 236.00194336 -130.6271875 234.81858398 -131.11328125 233.59936523 C-149.09814351 184.78331053 -144.13882879 123.32858588 -122.796875 76.65014648 C-107.88109763 44.90395071 -84.17242808 19.3887243 -50.68359375 7.18530273 C-45.74941496 5.57450893 -40.74449085 4.33577073 -35.68359375 3.18530273 C-34.75675781 2.97131836 -33.82992187 2.75733398 -32.875 2.53686523 C-21.97124599 0.18941117 -11.1053453 -0.0011141 0 0 Z " fill="#209CEE" transform="translate(409.68359375,62.814697265625)"/>
<path d="M0 0 C21.99586008 20.6293838 32.63428473 53.65061019 34.07910156 83.12817383 C34.15340885 87.09197224 34.1699422 91.05157459 34.13671875 95.015625 C34.13261993 95.71511261 34.12852112 96.41460022 34.1242981 97.13528442 C33.94769662 122.93268493 29.46362828 146.88663274 17.88671875 170.203125 C17.42910156 171.16734375 16.97148437 172.1315625 16.5 173.125 C5.15044156 195.62899554 -13.72899093 209.77636457 -37.25732422 217.60546875 C-67.19745489 227.24680522 -102.18573514 224.43637204 -130.28125 210.6484375 C-151.79850703 199.0129738 -164.42472449 178.36674883 -173.11328125 156.203125 C-173.48195312 155.31109375 -173.850625 154.4190625 -174.23046875 153.5 C-180.69229228 136.36865389 -181.49084234 118.17072149 -181.48828125 100.078125 C-181.49009399 99.24654877 -181.49190674 98.41497253 -181.49377441 97.55819702 C-181.49064661 84.88262583 -180.97531724 72.35548232 -177.23828125 60.140625 C-176.88765625 58.98433594 -176.53703125 57.82804687 -176.17578125 56.63671875 C-175.82515625 55.50363281 -175.47453125 54.37054688 -175.11328125 53.203125 C-174.80390625 52.12160156 -174.49453125 51.04007812 -174.17578125 49.92578125 C-169.05583026 32.32594972 -161.12966906 17.99171389 -149.11328125 4.203125 C-148.5615625 3.56632812 -148.00984375 2.92953125 -147.44140625 2.2734375 C-111.59884537 -36.23069969 -37.80210464 -32.14227012 0 0 Z " fill="#FDFEFE" transform="translate(191.11328125,165.796875)"/>
<path d="M0 0 C2.41554739 -0.00217399 4.83062746 -0.02035119 7.24609375 -0.03930664 C40.43401359 -0.16078558 74.10197961 7.55925971 99.31640625 30.18530273 C100.1157659 30.79984935 100.1157659 30.79984935 100.93127424 31.42681104 C102.97365274 34.01970876 102.68888716 36.02984977 102.68554974 39.3016386 C102.69152288 40.58950132 102.69749603 41.87736404 102.70365018 43.2042529 C102.69509043 44.64176002 102.68625363 46.07926551 102.6771698 47.51676941 C102.67847724 49.03728675 102.68110253 50.55780344 102.6849373 52.07831651 C102.69166632 56.26740359 102.67961656 60.4562619 102.66460311 64.64531982 C102.6516817 69.15860176 102.65602944 73.67187017 102.65830994 78.18516541 C102.65988514 86.00833902 102.65045013 93.83143774 102.63359642 101.65459251 C102.60924445 112.96563391 102.60140505 124.27663898 102.59763245 135.58770374 C102.59106198 153.93788424 102.5710847 172.28802479 102.54272461 190.63818359 C102.51519942 208.46663208 102.49395831 226.29506972 102.48120117 244.12353516 C102.48001892 245.77117446 102.48001892 245.77117446 102.47881278 247.45209941 C102.47489774 252.96242566 102.4711066 258.47275198 102.46737707 263.98307836 C102.43626264 309.71718082 102.38341067 355.45123972 102.31640625 401.18530273 C95.51268085 402.06157476 88.93071217 402.36867259 82.06640625 402.37280273 C81.01066406 402.38504883 79.95492187 402.39729492 78.8671875 402.40991211 C57.14708198 402.4497899 36.0658923 395.56137001 20.31640625 380.18530273 C14.47360494 373.56021441 9.89223709 366.48792793 5.56640625 358.81030273 C4.36196177 356.70540044 3.15620805 354.60124682 1.94921875 352.49780273 C1.34883789 351.44850586 0.74845703 350.39920898 0.12988281 349.31811523 C-3.19521652 343.57394795 -6.65543907 337.91018287 -10.12792969 332.25415039 C-10.83224121 331.09471924 -10.83224121 331.09471924 -11.55078125 329.91186523 C-11.96440918 329.23720215 -12.37803711 328.56253906 -12.80419922 327.86743164 C-13.68359375 326.18530273 -13.68359375 326.18530273 -13.68359375 324.18530273 C-14.67875 324.17112305 -15.67390625 324.15694336 -16.69921875 324.14233398 C-43.56318715 323.37628222 -70.34702157 313.90202665 -90.68359375 296.18530273 C-91.57691406 295.43635742 -92.47023438 294.68741211 -93.390625 293.91577148 C-110.903847 278.7539751 -121.48304065 258.52201539 -129.68359375 237.18530273 C-130.15539062 236.00194336 -130.6271875 234.81858398 -131.11328125 233.59936523 C-149.09814351 184.78331053 -144.13882879 123.32858588 -122.796875 76.65014648 C-107.88109763 44.90395071 -84.17242808 19.3887243 -50.68359375 7.18530273 C-45.74941496 5.57450893 -40.74449085 4.33577073 -35.68359375 3.18530273 C-34.75675781 2.97131836 -33.82992187 2.75733398 -32.875 2.53686523 C-21.97124599 0.18941117 -11.1053453 -0.0011141 0 0 Z M-57.68359375 43.18530273 C-58.42867187 43.83885742 -59.17375 44.49241211 -59.94140625 45.16577148 C-81.44065228 65.17100211 -88.52060247 99.40758231 -89.8526001 127.78601074 C-90.08924546 136.43570041 -90.06300413 145.08296183 -90.00616455 153.73455811 C-89.99272912 156.50380499 -89.99800872 159.27289137 -90.00302029 162.04215622 C-90.02973507 181.47325512 -89.42447967 200.59737628 -85.49609375 219.68530273 C-85.17680908 221.24921753 -85.17680908 221.24921753 -84.85107422 222.84472656 C-79.53886827 247.61803101 -69.46295488 273.93593528 -47.42578125 288.31030273 C-24.48692081 302.32352411 4.4271246 304.71788343 30.40576172 299.01977539 C49.9669407 294.27028758 66.74327966 284.83248882 77.47827148 267.25610352 C81.95796967 259.57631624 85.305099 251.53401686 88.31640625 243.18530273 C88.68507813 242.19788086 89.05375 241.21045898 89.43359375 240.19311523 C91.89857328 232.98926033 93.23285474 225.67942704 94.50390625 218.18530273 C94.67100098 217.20053955 94.8380957 216.21577637 95.01025391 215.20117188 C96.87007181 203.6160961 97.4741718 192.0398107 97.5546875 180.31811523 C97.56448135 179.13226837 97.57427521 177.94642151 97.58436584 176.72463989 C98.27808928 106.85525286 98.27808928 106.85525286 66.59765625 46.37670898 C48.2741942 28.77489013 23.9253315 22.74022338 -0.89111328 22.7487793 C-21.57795442 23.21774169 -42.1348052 29.05829057 -57.68359375 43.18530273 Z " fill="#FDFEFE" transform="translate(409.68359375,62.814697265625)"/>
<path d="M0 0 C18.28899186 15.14751537 23.76650954 42.31529908 25.984375 64.8359375 C27.68899617 86.36878417 27.68299109 108.83567422 24.484375 130.21484375 C24.38785645 130.93784668 24.29133789 131.66084961 24.19189453 132.40576172 C22.2627076 146.75270363 18.48036522 160.59285639 9.484375 172.21484375 C8.906875 173.08109375 8.329375 173.94734375 7.734375 174.83984375 C-1.40957573 184.49179174 -14.14782561 190.05925164 -27.34375 190.55078125 C-46.04602876 190.81407137 -58.39046952 188.71022832 -72.578125 175.83984375 C-82.31955778 165.7353762 -87.30550372 151.6524285 -90.515625 138.21484375 C-90.71172363 137.40692383 -90.90782227 136.59900391 -91.10986328 135.76660156 C-94.48409435 121.03917274 -94.88721729 106.4386258 -94.890625 91.40234375 C-94.89252838 90.50212494 -94.89443176 89.60190613 -94.89639282 88.67440796 C-94.88945126 59.65108612 -93.93213227 25.09111068 -73.265625 2.40234375 C-54.41783453 -15.02454899 -20.23653584 -14.36039888 0 0 Z " fill="#209CEE" transform="translate(151.515625,174.78515625)"/>
<path d="M0 0 C0 27.06 0 54.12 0 82 C-17.83662892 82 -32.87848921 70.50321546 -47.2890625 61.0703125 C-52.62130411 57.58340655 -57.9971 54.16591511 -63.375 50.75 C-64.26574219 50.18394043 -65.15648437 49.61788086 -66.07421875 49.03466797 C-66.94433594 48.48182129 -67.81445312 47.92897461 -68.7109375 47.359375 C-69.56655273 46.81345703 -70.42216797 46.26753906 -71.30371094 45.70507812 C-73.23046672 44.48663713 -75.16720257 43.28392031 -77.11035156 42.09179688 C-78.62193848 41.1569043 -78.62193848 41.1569043 -80.1640625 40.203125 C-81.55165771 39.35476074 -81.55165771 39.35476074 -82.96728516 38.48925781 C-83.63808105 37.99780273 -84.30887695 37.50634766 -85 37 C-85 36.34 -85 35.68 -85 35 C-84.26177002 34.88519287 -83.52354004 34.77038574 -82.76293945 34.65209961 C-59.74740244 31.00022733 -17.07792546 0 0 0 Z " fill="#219CEE" transform="translate(512,353)"/>
<path d="M0 0 C0.33 0 0.66 0 1 0 C1 13.53 1 27.06 1 41 C-12.53 41 -26.06 41 -40 41 C-36.77794772 39.38897386 -33.66489916 38.09649079 -30.3125 36.8125 C-17.71232801 31.5611525 -8.22889841 22.19948407 -2.96484375 9.59765625 C-1.78548854 6.42246916 -0.80417774 3.28981803 0 0 Z " fill="#000000" transform="translate(511,471)"/>
<path d="M0 0 C1.61102614 3.22205228 2.90350921 6.33510084 4.1875 9.6875 C9.4388475 22.28767199 18.80051593 31.77110159 31.40234375 37.03515625 C34.57753084 38.21451146 37.71018197 39.19582226 41 40 C41 40.33 41 40.66 41 41 C27.47 41 13.94 41 0 41 C0 27.47 0 13.94 0 0 Z " fill="#000000" transform="translate(0,471)"/>
<path d="M0 0 C13.53 0 27.06 0 41 0 C41 13.53 41 27.06 41 41 C39.38897386 37.77794772 38.09649079 34.66489916 36.8125 31.3125 C31.5611525 18.71232801 22.19948407 9.22889841 9.59765625 3.96484375 C6.42246916 2.78548854 3.28981803 1.80417774 0 1 C0 0.67 0 0.34 0 0 Z " fill="#000000" transform="translate(471,0)"/>
<path d="M0 0 C13.53 0 27.06 0 41 0 C37.77794772 1.61102614 34.66489916 2.90350921 31.3125 4.1875 C18.71232801 9.4388475 9.22889841 18.80051593 3.96484375 31.40234375 C2.78548854 34.57753084 1.80417774 37.71018197 1 41 C0.67 41 0.34 41 0 41 C0 27.47 0 13.94 0 0 Z " fill="#000000" transform="translate(0,0)"/>
</svg>
